<svg xmlns="http://www.w3.org/2000/svg" xmlns:xlink="http://www.w3.org/1999/xlink" viewBox="0 0 450 300"><defs><style>.cls-1{isolation:isolate;}.cls-2{fill:#fff;}.cls-3{fill:#f8f8f8;}.cls-4{fill:#a7d8db;}.cls-5{fill:#cae7ea;}.cls-6{fill:#0a7f88;}.cls-7{fill:#009aa6;}.cls-8{fill:#47cfab;}.cls-9{fill:#62bdb4;}.cls-10{fill:#3db6b3;}.cls-11{fill:#3faaa7;}.cls-12{fill:url(#linear-gradient);}.cls-13{fill:#f2f2f2;}.cls-14{fill:#d4d4d4;mix-blend-mode:multiply;opacity:0.3;}.cls-15{fill:#e8e8e8;}.cls-16{fill:#e7b89f;}.cls-17{fill:#2dafca;}.cls-18{fill:#e8c0a8;}.cls-19{fill:#d19987;}.cls-20{fill:#f195a2;}.cls-21{fill:url(#linear-gradient-2);}.cls-22{fill:url(#linear-gradient-3);}.cls-23,.cls-34{fill:none;stroke-miterlimit:10;}.cls-23{stroke:#4b2b19;stroke-width:0.57px;}.cls-24{fill:url(#linear-gradient-4);}.cls-25{fill:url(#linear-gradient-5);}.cls-26{fill:url(#linear-gradient-6);}.cls-27{fill:url(#linear-gradient-7);}.cls-28{fill:url(#linear-gradient-8);}.cls-29{fill:#a56052;}.cls-30{fill:#f6f6f6;}.cls-31{fill:#00d7d4;}.cls-32{fill:#00c0ce;}.cls-33{fill:#ebebeb;}.cls-34{stroke:#fff;stroke-width:0.5px;}.cls-35{fill:#d7d7d7;}</style><linearGradient id="linear-gradient" x1="-5859.57" y1="125.71" x2="-5824.02" y2="125.71" gradientTransform="matrix(-1, 0, 0, 1, -5529.76, 0)" gradientUnits="userSpaceOnUse"><stop offset="0" stop-color="#502f26"/><stop offset="1" stop-color="#3b221d"/></linearGradient><linearGradient id="linear-gradient-2" x1="-7274.23" y1="-16.43" x2="-7273.47" y2="-11.65" gradientTransform="matrix(0.99, -0.13, 0.13, 0.99, 7519.29, -821.45)" gradientUnits="userSpaceOnUse"><stop offset="0" stop-color="#c9926a"/><stop offset="1" stop-color="#c9926a" stop-opacity="0"/></linearGradient><linearGradient id="linear-gradient-3" x1="-7181.33" y1="107.79" x2="-7176.49" y2="107.79" gradientTransform="translate(7483.74)" xlink:href="#linear-gradient"/><linearGradient id="linear-gradient-4" x1="-5857.02" y1="102.05" x2="-5827.43" y2="102.05" xlink:href="#linear-gradient"/><linearGradient id="linear-gradient-5" x1="-5848.22" y1="100.86" x2="-5825.53" y2="100.86" xlink:href="#linear-gradient"/><linearGradient id="linear-gradient-6" x1="-5847.4" y1="107.51" x2="-5827.94" y2="107.51" xlink:href="#linear-gradient"/><linearGradient id="linear-gradient-7" x1="-5952.08" y1="156.92" x2="-5951.32" y2="161.7" gradientTransform="matrix(-0.99, -0.13, -0.13, 0.99, -5565.31, -821.45)" xlink:href="#linear-gradient-2"/><linearGradient id="linear-gradient-8" x1="-5847.88" y1="107.79" x2="-5843.04" y2="107.79" xlink:href="#linear-gradient"/></defs><g class="cls-1"><g id="OBJECTS"><rect class="cls-2" width="450" height="300" rx="3.5" transform="translate(450 300) rotate(180)"/><path class="cls-3" d="M419.57,253.78c0,3.21-50.05,5.81-111.8,5.81S196,257,196,253.78,246,248,307.77,248,419.57,250.57,419.57,253.78Z" transform="translate(0 0)"/><rect class="cls-4" x="237.47" y="65.93" width="145.43" height="108.01" rx="1.57"/><rect class="cls-5" x="240.08" y="69.91" width="140.21" height="102.09" rx="1.57"/><rect class="cls-4" x="237.47" y="99.04" width="145.43" height="1.9"/><rect class="cls-4" x="237.47" y="126.44" width="145.43" height="1.9"/><rect class="cls-4" x="237.47" y="153.84" width="145.43" height="1.9"/><rect class="cls-6" x="297.98" y="83.56" width="1.98" height="0.62"/><rect class="cls-6" x="284.71" y="83.56" width="1.98" height="0.62"/><path class="cls-6" d="M295.36,85h-6.91V81.4a1.07,1.07,0,0,1,1-1.12h4.88a1.07,1.07,0,0,1,1,1.12Zm-6.12-.87h5.33V81.4a.24.24,0,0,0-.22-.25h-4.88a.24.24,0,0,0-.23.25Z" transform="translate(0 0)"/><rect class="cls-7" x="281.7" y="84.06" width="20.42" height="14.96" rx="1.19"/><path class="cls-8" d="M295.52,90.55h-2.24V88.08a.32.32,0,0,0-.3-.34h-1.66a.33.33,0,0,0-.31.34v2.47h-2.23a.33.33,0,0,0-.31.34v1.84a.33.33,0,0,0,.31.34H291v2.47a.33.33,0,0,0,.31.34H293a.32.32,0,0,0,.3-.34V93.07h2.24a.32.32,0,0,0,.3-.34V90.89A.32.32,0,0,0,295.52,90.55Z" transform="translate(0 0)"/><rect class="cls-6" x="320.39" y="83.56" width="1.98" height="0.62"/><rect class="cls-6" x="307.12" y="83.56" width="1.98" height="0.62"/><path class="cls-6" d="M317.77,85h-6.91V81.4a1.07,1.07,0,0,1,1-1.12h4.88a1.07,1.07,0,0,1,1,1.12Zm-6.11-.87H317V81.4a.24.24,0,0,0-.22-.25h-4.88a.24.24,0,0,0-.22.25Z" transform="translate(0 0)"/><rect class="cls-7" x="304.11" y="84.06" width="20.42" height="14.96" rx="1.19"/><path class="cls-8" d="M317.93,90.55h-2.24V88.08a.32.32,0,0,0-.3-.34h-1.66a.33.33,0,0,0-.31.34v2.47h-2.23a.33.33,0,0,0-.31.34v1.84a.33.33,0,0,0,.31.34h2.23v2.47a.33.33,0,0,0,.31.34h1.66a.32.32,0,0,0,.3-.34V93.07h2.24a.32.32,0,0,0,.3-.34V90.89A.32.32,0,0,0,317.93,90.55Z" transform="translate(0 0)"/><rect class="cls-6" x="342.8" y="83.56" width="1.98" height="0.62"/><rect class="cls-6" x="329.53" y="83.56" width="1.98" height="0.62"/><path class="cls-6" d="M340.18,85h-6.9V81.4a1.07,1.07,0,0,1,1-1.12h4.88a1.07,1.07,0,0,1,1,1.12Zm-6.11-.87h5.32V81.4a.24.24,0,0,0-.22-.25h-4.88a.24.24,0,0,0-.22.25Z" transform="translate(0 0)"/><rect class="cls-7" x="326.52" y="84.06" width="20.42" height="14.96" rx="1.19"/><path class="cls-8" d="M340.34,90.55h-2.23V88.08a.33.33,0,0,0-.31-.34h-1.66a.33.33,0,0,0-.31.34v2.47H333.6a.33.33,0,0,0-.31.34v1.84a.33.33,0,0,0,.31.34h2.23v2.47a.33.33,0,0,0,.31.34h1.66a.33.33,0,0,0,.31-.34V93.07h2.23a.32.32,0,0,0,.3-.34V90.89A.32.32,0,0,0,340.34,90.55Z" transform="translate(0 0)"/><path class="cls-6" d="M250,111.86h-2.87l-2.59,4.45a.46.46,0,0,0-.05.21v9.53a.37.37,0,0,0,.35.38h7.47a.37.37,0,0,0,.36-.39l0-9.52a.46.46,0,0,0-.05-.21Z" transform="translate(0 0)"/><path class="cls-6" d="M244.44,116.53v9.53a.37.37,0,0,0,.35.38h7.47a.37.37,0,0,0,.36-.39l0-9.52Z" transform="translate(0 0)"/><rect class="cls-6" x="247.04" y="111.55" width="2.95" height="0.2" transform="translate(-0.19 0.42) rotate(-0.1)"/><rect class="cls-8" x="244.44" y="116.93" width="8.17" height="8.99" transform="translate(-0.21 0.43) rotate(-0.1)"/><rect class="cls-7" x="244.44" y="119.9" width="8.17" height="3.05" transform="translate(-0.21 0.42) rotate(-0.1)"/><rect class="cls-7" x="244.45" y="125.11" width="8.17" height="0.21" transform="translate(-0.21 0.42) rotate(-0.1)"/><rect class="cls-7" x="244.44" y="117.47" width="8.17" height="0.21" transform="translate(-0.2 0.42) rotate(-0.1)"/><path class="cls-7" d="M250.06,112H247a.15.15,0,0,1-.15-.15h0a.15.15,0,0,1,.15-.15h3.08a.14.14,0,0,1,.14.14v0A.14.14,0,0,1,250.06,112Z" transform="translate(0 0)"/><path class="cls-7" d="M250.08,109.88a.23.23,0,0,0-.21-.24h-2.71a.23.23,0,0,0-.22.24v1.71h3.14Z" transform="translate(0 0)"/><rect class="cls-6" x="247.07" y="109.98" width="0.09" height="1.49" transform="translate(-0.24 0.54) rotate(-0.13)"/><rect class="cls-6" x="247.43" y="109.98" width="0.09" height="1.49" transform="translate(-0.24 0.54) rotate(-0.13)"/><rect class="cls-6" x="247.78" y="109.98" width="0.09" height="1.49" transform="translate(-0.24 0.54) rotate(-0.13)"/><rect class="cls-6" x="248.13" y="109.98" width="0.09" height="1.49" transform="translate(-0.24 0.54) rotate(-0.13)"/><rect class="cls-6" x="248.48" y="109.98" width="0.09" height="1.49" transform="translate(-0.12 0.27) rotate(-0.06)"/><rect class="cls-6" x="248.83" y="109.98" width="0.09" height="1.49" transform="translate(-0.12 0.27) rotate(-0.06)"/><rect class="cls-6" x="249.18" y="109.98" width="0.09" height="1.49" transform="translate(-0.12 0.27) rotate(-0.06)"/><rect class="cls-6" x="249.53" y="109.97" width="0.09" height="1.49" transform="translate(-0.12 0.27) rotate(-0.06)"/><rect class="cls-6" x="249.88" y="109.97" width="0.09" height="1.49" transform="translate(-0.12 0.27) rotate(-0.06)"/><path class="cls-8" d="M250.17,112.56l2.12,3.57A8,8,0,0,1,250.17,112.56Z" transform="translate(0 0)"/><path class="cls-6" d="M261.3,111.86h-2.87l-2.59,4.45a.46.46,0,0,0-.05.21v9.53a.37.37,0,0,0,.35.38h7.47A.36.36,0,0,0,264,126v-9.52a.37.37,0,0,0-.06-.21Z" transform="translate(0 0)"/><path class="cls-6" d="M255.79,116.53v9.53a.37.37,0,0,0,.35.38h7.47A.36.36,0,0,0,264,126v-9.52Z" transform="translate(0 0)"/><rect class="cls-6" x="258.39" y="111.55" width="2.95" height="0.2" transform="translate(-0.19 0.44) rotate(-0.1)"/><rect class="cls-8" x="255.79" y="116.93" width="8.17" height="8.99" transform="translate(-0.21 0.45) rotate(-0.1)"/><rect class="cls-7" x="255.79" y="119.9" width="8.17" height="3.05" transform="translate(-0.21 0.44) rotate(-0.1)"/><rect class="cls-7" x="255.8" y="125.11" width="8.17" height="0.21" transform="translate(-0.21 0.44) rotate(-0.1)"/><rect class="cls-7" x="255.79" y="117.47" width="8.17" height="0.21" transform="translate(-0.2 0.44) rotate(-0.1)"/><path class="cls-7" d="M261.41,112h-3.08a.15.15,0,0,1-.15-.15h0a.15.15,0,0,1,.15-.15h3.08a.14.14,0,0,1,.14.14v0A.14.14,0,0,1,261.41,112Z" transform="translate(0 0)"/><path class="cls-7" d="M261.43,109.88a.23.23,0,0,0-.22-.24h-2.7a.23.23,0,0,0-.22.24v1.71h3.14Z" transform="translate(0 0)"/><rect class="cls-6" x="258.42" y="109.98" width="0.09" height="1.49" transform="translate(-0.24 0.56) rotate(-0.13)"/><rect class="cls-6" x="258.77" y="109.98" width="0.09" height="1.49" transform="translate(-0.24 0.57) rotate(-0.13)"/><rect class="cls-6" x="259.13" y="109.98" width="0.09" height="1.49" transform="translate(-0.24 0.57) rotate(-0.13)"/><rect class="cls-6" x="259.48" y="109.98" width="0.09" height="1.49" transform="translate(-0.24 0.57) rotate(-0.13)"/><rect class="cls-6" x="259.83" y="109.98" width="0.09" height="1.49" transform="translate(-0.12 0.28) rotate(-0.06)"/><rect class="cls-6" x="260.18" y="109.98" width="0.09" height="1.49" transform="translate(-0.12 0.28) rotate(-0.06)"/><rect class="cls-6" x="260.53" y="109.98" width="0.09" height="1.49" transform="translate(-0.12 0.28) rotate(-0.06)"/><rect class="cls-6" x="260.88" y="109.97" width="0.09" height="1.49" transform="translate(-0.12 0.29) rotate(-0.06)"/><rect class="cls-6" x="261.23" y="109.97" width="0.09" height="1.49" transform="translate(-0.12 0.29) rotate(-0.06)"/><path class="cls-8" d="M261.51,112.56l2.13,3.57A8.11,8.11,0,0,1,261.51,112.56Z" transform="translate(0 0)"/><path class="cls-6" d="M272.65,111.86h-2.87l-2.59,4.45a.46.46,0,0,0-.05.21v9.53a.37.37,0,0,0,.35.38H275a.36.36,0,0,0,.35-.39v-9.52a.37.37,0,0,0-.06-.21Z" transform="translate(0 0)"/><path class="cls-6" d="M267.14,116.53v9.53a.37.37,0,0,0,.35.38H275a.36.36,0,0,0,.35-.39v-9.52Z" transform="translate(0 0)"/><rect class="cls-6" x="269.74" y="111.55" width="2.95" height="0.2" transform="translate(-0.19 0.46) rotate(-0.1)"/><rect class="cls-8" x="267.14" y="116.93" width="8.17" height="8.99" transform="translate(-0.21 0.46) rotate(-0.1)"/><rect class="cls-7" x="267.14" y="119.9" width="8.17" height="3.05" transform="translate(-0.21 0.46) rotate(-0.1)"/><rect class="cls-7" x="267.15" y="125.11" width="8.17" height="0.21" transform="translate(-0.21 0.46) rotate(-0.1)"/><rect class="cls-7" x="267.14" y="117.47" width="8.17" height="0.21" transform="translate(-0.2 0.46) rotate(-0.1)"/><path class="cls-7" d="M272.76,112h-3.08a.15.15,0,0,1-.15-.15h0a.15.15,0,0,1,.15-.15h3.07a.14.14,0,0,1,.15.14v0A.14.14,0,0,1,272.76,112Z" transform="translate(0 0)"/><path class="cls-7" d="M272.78,109.88a.23.23,0,0,0-.22-.24h-2.7a.23.23,0,0,0-.22.24v1.71h3.14Z" transform="translate(0 0)"/><rect class="cls-6" x="269.77" y="109.98" width="0.09" height="1.49" transform="translate(-0.24 0.59) rotate(-0.13)"/><rect class="cls-6" x="270.12" y="109.98" width="0.09" height="1.49" transform="translate(-0.24 0.59) rotate(-0.13)"/><rect class="cls-6" x="270.47" y="109.98" width="0.09" height="1.49" transform="translate(-0.24 0.59) rotate(-0.13)"/><rect class="cls-6" x="270.83" y="109.98" width="0.09" height="1.49" transform="translate(-0.24 0.59) rotate(-0.13)"/><rect class="cls-6" x="271.18" y="109.98" width="0.09" height="1.49" transform="translate(-0.12 0.3) rotate(-0.06)"/><rect class="cls-6" x="271.53" y="109.98" width="0.09" height="1.49" transform="translate(-0.12 0.3) rotate(-0.06)"/><rect class="cls-6" x="271.88" y="109.98" width="0.09" height="1.49" transform="translate(-0.12 0.3) rotate(-0.06)"/><rect class="cls-6" x="272.23" y="109.97" width="0.09" height="1.49" transform="translate(-0.12 0.3) rotate(-0.06)"/><rect class="cls-6" x="272.58" y="109.97" width="0.09" height="1.49" transform="translate(-0.12 0.3) rotate(-0.06)"/><path class="cls-8" d="M272.86,112.56l2.13,3.57A8.11,8.11,0,0,1,272.86,112.56Z" transform="translate(0 0)"/><path class="cls-6" d="M348.77,111.86H345.9l-2.59,4.45a.46.46,0,0,0-.05.21v9.53a.37.37,0,0,0,.35.38h7.47a.37.37,0,0,0,.36-.39l0-9.52a.46.46,0,0,0-.05-.21Z" transform="translate(0 0)"/><path class="cls-6" d="M343.26,116.53v9.53a.37.37,0,0,0,.35.38h7.47a.37.37,0,0,0,.36-.39l0-9.52Z" transform="translate(0 0)"/><rect class="cls-6" x="345.86" y="111.55" width="2.95" height="0.2" transform="translate(-0.19 0.59) rotate(-0.1)"/><rect class="cls-8" x="343.27" y="116.93" width="8.17" height="8.99" transform="translate(-0.21 0.6) rotate(-0.1)"/><rect class="cls-7" x="343.27" y="119.9" width="8.17" height="3.05" transform="translate(-0.21 0.59) rotate(-0.1)"/><rect class="cls-7" x="343.27" y="125.11" width="8.17" height="0.21" transform="translate(-0.21 0.59) rotate(-0.1)"/><rect class="cls-7" x="343.26" y="117.47" width="8.17" height="0.21" transform="translate(-0.2 0.59) rotate(-0.1)"/><path class="cls-7" d="M348.88,112H345.8a.15.15,0,0,1-.15-.15h0a.15.15,0,0,1,.15-.15h3.08a.14.14,0,0,1,.14.14v0A.14.14,0,0,1,348.88,112Z" transform="translate(0 0)"/><path class="cls-7" d="M348.9,109.88a.23.23,0,0,0-.21-.24H346a.23.23,0,0,0-.22.24v1.71h3.14Z" transform="translate(0 0)"/><rect class="cls-6" x="345.89" y="109.98" width="0.09" height="1.49" transform="translate(-0.24 0.76) rotate(-0.13)"/><rect class="cls-6" x="346.25" y="109.98" width="0.09" height="1.49" transform="translate(-0.24 0.76) rotate(-0.13)"/><rect class="cls-6" x="346.6" y="109.98" width="0.09" height="1.49" transform="translate(-0.24 0.76) rotate(-0.13)"/><rect class="cls-6" x="346.95" y="109.98" width="0.09" height="1.49" transform="translate(-0.24 0.76) rotate(-0.13)"/><rect class="cls-6" x="347.3" y="109.98" width="0.09" height="1.49" transform="translate(-0.12 0.38) rotate(-0.06)"/><rect class="cls-6" x="347.65" y="109.98" width="0.09" height="1.49" transform="translate(-0.12 0.38) rotate(-0.06)"/><rect class="cls-6" x="348" y="109.98" width="0.09" height="1.49" transform="translate(-0.12 0.38) rotate(-0.06)"/><rect class="cls-6" x="348.35" y="109.97" width="0.09" height="1.49" transform="translate(-0.12 0.38) rotate(-0.06)"/><rect class="cls-6" x="348.7" y="109.97" width="0.09" height="1.49" transform="translate(-0.12 0.38) rotate(-0.06)"/><path class="cls-8" d="M349,112.56l2.12,3.57A8,8,0,0,1,349,112.56Z" transform="translate(0 0)"/><path class="cls-6" d="M360.12,111.86h-2.87l-2.59,4.45a.46.46,0,0,0-.05.21v9.53a.37.37,0,0,0,.35.38h7.47a.36.36,0,0,0,.35-.39v-9.52a.46.46,0,0,0,0-.21Z" transform="translate(0 0)"/><path class="cls-6" d="M354.61,116.53v9.53a.37.37,0,0,0,.35.38h7.47a.36.36,0,0,0,.35-.39v-9.52Z" transform="translate(0 0)"/><rect class="cls-6" x="357.21" y="111.55" width="2.95" height="0.2" transform="translate(-0.19 0.61) rotate(-0.1)"/><rect class="cls-8" x="354.61" y="116.93" width="8.17" height="8.99" transform="translate(-0.21 0.61) rotate(-0.1)"/><rect class="cls-7" x="354.61" y="119.9" width="8.17" height="3.05" transform="translate(-0.21 0.61) rotate(-0.1)"/><rect class="cls-7" x="354.62" y="125.11" width="8.17" height="0.21" transform="translate(-0.21 0.61) rotate(-0.1)"/><rect class="cls-7" x="354.61" y="117.47" width="8.17" height="0.21" transform="translate(-0.2 0.61) rotate(-0.1)"/><path class="cls-7" d="M360.23,112h-3.08a.15.15,0,0,1-.15-.15h0a.15.15,0,0,1,.15-.15h3.08a.14.14,0,0,1,.14.14v0A.14.14,0,0,1,360.23,112Z" transform="translate(0 0)"/><path class="cls-7" d="M360.25,109.88a.23.23,0,0,0-.22-.24h-2.7a.23.23,0,0,0-.22.24v1.71h3.14Z" transform="translate(0 0)"/><rect class="cls-6" x="357.24" y="109.98" width="0.09" height="1.49" transform="translate(-0.24 0.78) rotate(-0.13)"/><rect class="cls-6" x="357.59" y="109.98" width="0.09" height="1.49" transform="translate(-0.24 0.78) rotate(-0.13)"/><rect class="cls-6" x="357.95" y="109.98" width="0.09" height="1.49" transform="translate(-0.24 0.78) rotate(-0.13)"/><rect class="cls-6" x="358.3" y="109.98" width="0.09" height="1.49" transform="translate(-0.24 0.78) rotate(-0.13)"/><rect class="cls-6" x="358.65" y="109.98" width="0.09" height="1.49" transform="translate(-0.12 0.39) rotate(-0.06)"/><rect class="cls-6" x="359" y="109.98" width="0.09" height="1.49" transform="translate(-0.12 0.39) rotate(-0.06)"/><rect class="cls-6" x="359.35" y="109.98" width="0.09" height="1.49" transform="translate(-0.12 0.39) rotate(-0.06)"/><rect class="cls-6" x="359.7" y="109.97" width="0.09" height="1.49" transform="translate(-0.12 0.39) rotate(-0.06)"/><rect class="cls-6" x="360.05" y="109.97" width="0.09" height="1.49" transform="translate(-0.12 0.39) rotate(-0.06)"/><path class="cls-8" d="M360.34,112.56l2.12,3.57A8,8,0,0,1,360.34,112.56Z" transform="translate(0 0)"/><path class="cls-6" d="M371.47,111.86H368.6L366,116.32a.46.46,0,0,0-.05.21v9.53a.37.37,0,0,0,.35.38h7.47a.36.36,0,0,0,.35-.39v-9.52a.37.37,0,0,0-.06-.21Z" transform="translate(0 0)"/><path class="cls-6" d="M366,116.53v9.53a.37.37,0,0,0,.35.38h7.47a.36.36,0,0,0,.35-.39v-9.52Z" transform="translate(0 0)"/><rect class="cls-6" x="368.56" y="111.55" width="2.95" height="0.2" transform="translate(-0.19 0.63) rotate(-0.1)"/><rect class="cls-8" x="365.96" y="116.93" width="8.17" height="8.99" transform="translate(-0.21 0.63) rotate(-0.1)"/><rect class="cls-7" x="365.96" y="119.9" width="8.17" height="3.05" transform="translate(-0.21 0.63) rotate(-0.1)"/><rect class="cls-7" x="365.97" y="125.11" width="8.17" height="0.21" transform="translate(-0.21 0.63) rotate(-0.1)"/><rect class="cls-7" x="365.96" y="117.47" width="8.17" height="0.21" transform="translate(-0.2 0.63) rotate(-0.1)"/><path class="cls-7" d="M371.58,112H368.5a.15.15,0,0,1-.15-.15h0a.15.15,0,0,1,.15-.15h3.07a.14.14,0,0,1,.15.14v0A.14.14,0,0,1,371.58,112Z" transform="translate(0 0)"/><path class="cls-7" d="M371.6,109.88a.23.23,0,0,0-.22-.24h-2.7a.23.23,0,0,0-.22.24v1.71h3.14Z" transform="translate(0 0)"/><rect class="cls-6" x="368.59" y="109.98" width="0.09" height="1.49" transform="translate(-0.24 0.81) rotate(-0.13)"/><rect class="cls-6" x="368.94" y="109.98" width="0.09" height="1.49" transform="translate(-0.24 0.81) rotate(-0.13)"/><rect class="cls-6" x="369.29" y="109.98" width="0.09" height="1.49" transform="translate(-0.24 0.81) rotate(-0.13)"/><rect class="cls-6" x="369.65" y="109.98" width="0.09" height="1.49" transform="translate(-0.24 0.81) rotate(-0.13)"/><rect class="cls-6" x="370" y="109.98" width="0.09" height="1.49" transform="translate(-0.12 0.4) rotate(-0.06)"/><rect class="cls-6" x="370.35" y="109.98" width="0.09" height="1.49" transform="translate(-0.12 0.4) rotate(-0.06)"/><rect class="cls-6" x="370.7" y="109.98" width="0.09" height="1.49" transform="translate(-0.12 0.41) rotate(-0.06)"/><rect class="cls-6" x="371.05" y="109.97" width="0.09" height="1.49" transform="translate(-0.12 0.41) rotate(-0.06)"/><rect class="cls-6" x="371.4" y="109.97" width="0.09" height="1.49" transform="translate(-0.12 0.41) rotate(-0.06)"/><path class="cls-8" d="M371.68,112.56l2.13,3.57A8.11,8.11,0,0,1,371.68,112.56Z" transform="translate(0 0)"/><path class="cls-8" d="M286.82,124.58l-5.39,0-1-17.41a.22.22,0,0,1,.2-.25l6.74-.06a.22.22,0,0,1,.21.25Z" transform="translate(0 0)"/><polygon class="cls-6" points="286.19 113.68 281.98 113.72 281.97 112.88 286.18 112.84 286.19 113.68"/><polygon class="cls-6" points="285.86 114.21 282.32 114.24 282.31 113.87 285.85 113.84 285.86 114.21"/><polygon class="cls-7" points="286.82 124.58 281.43 124.63 281.44 125.45 286.83 125.41 286.82 124.58"/><path class="cls-8" d="M281.44,125.45v.83a.19.19,0,0,0,.18.18l5.05,0a.18.18,0,0,0,.17-.19v-.82Z" transform="translate(0 0)"/><polygon class="cls-6" points="281.43 124.63 286.82 124.58 287 120.57 281.2 120.62 281.43 124.63"/><polygon class="cls-7" points="287.54 108.16 280.5 108.21 280.62 110.35 287.45 110.29 287.54 108.16"/><polygon class="cls-7" points="281.2 120.62 287 120.57 287.1 118.44 281.08 118.49 281.2 120.62"/><path class="cls-8" d="M296.66,124.58l-5.39,0-1-17.41a.23.23,0,0,1,.21-.25l6.74-.06a.23.23,0,0,1,.21.25Z" transform="translate(0 0)"/><polygon class="cls-6" points="296.02 113.68 291.82 113.72 291.81 112.88 296.02 112.84 296.02 113.68"/><polygon class="cls-6" points="295.69 114.21 292.15 114.24 292.15 113.87 295.69 113.84 295.69 114.21"/><polygon class="cls-7" points="296.66 124.58 291.27 124.63 291.28 125.45 296.67 125.41 296.66 124.58"/><path class="cls-8" d="M291.28,125.45v.83a.18.18,0,0,0,.17.18l5.06,0a.17.17,0,0,0,.16-.19v-.82Z" transform="translate(0 0)"/><polygon class="cls-6" points="291.27 124.63 296.66 124.58 296.84 120.57 291.04 120.62 291.27 124.63"/><polygon class="cls-7" points="297.38 108.16 290.34 108.21 290.46 110.35 297.29 110.29 297.38 108.16"/><polygon class="cls-7" points="291.04 120.62 296.84 120.57 296.93 118.44 290.92 118.49 291.04 120.62"/><path class="cls-8" d="M306.5,124.58l-5.39,0-1-17.41a.23.23,0,0,1,.21-.25l6.74-.06a.23.23,0,0,1,.21.25Z" transform="translate(0 0)"/><polygon class="cls-6" points="305.86 113.68 301.66 113.72 301.65 112.88 305.86 112.84 305.86 113.68"/><polygon class="cls-6" points="305.53 114.21 301.99 114.24 301.99 113.87 305.53 113.84 305.53 114.21"/><polygon class="cls-7" points="306.5 124.58 301.11 124.63 301.12 125.45 306.51 125.41 306.5 124.58"/><path class="cls-8" d="M301.12,125.45v.83a.18.18,0,0,0,.17.18l5.06,0a.17.17,0,0,0,.16-.19v-.82Z" transform="translate(0 0)"/><polygon class="cls-6" points="301.11 124.63 306.5 124.58 306.68 120.57 300.88 120.62 301.11 124.63"/><polygon class="cls-7" points="307.22 108.16 300.18 108.21 300.3 110.35 307.13 110.29 307.22 108.16"/><polygon class="cls-7" points="300.88 120.62 306.68 120.57 306.77 118.44 300.76 118.49 300.88 120.62"/><path class="cls-8" d="M316.34,124.58l-5.39,0-1-17.41a.23.23,0,0,1,.21-.25l6.74-.06a.23.23,0,0,1,.21.25Z" transform="translate(0 0)"/><polygon class="cls-6" points="315.7 113.68 311.5 113.72 311.49 112.88 315.7 112.84 315.7 113.68"/><polygon class="cls-6" points="315.37 114.21 311.83 114.24 311.83 113.87 315.37 113.84 315.37 114.21"/><polygon class="cls-7" points="316.34 124.58 310.95 124.63 310.96 125.45 316.35 125.41 316.34 124.58"/><path class="cls-8" d="M311,125.45v.83a.18.18,0,0,0,.17.18l5.05,0a.17.17,0,0,0,.17-.19v-.82Z" transform="translate(0 0)"/><polygon class="cls-6" points="310.95 124.63 316.34 124.58 316.52 120.57 310.72 120.62 310.95 124.63"/><polygon class="cls-7" points="317.06 108.16 310.01 108.21 310.14 110.35 316.96 110.29 317.06 108.16"/><polygon class="cls-7" points="310.72 120.62 316.52 120.57 316.61 118.44 310.6 118.49 310.72 120.62"/><path class="cls-8" d="M326.18,124.58l-5.39,0-1-17.41A.22.22,0,0,1,320,107l6.73-.06a.23.23,0,0,1,.22.25Z" transform="translate(0 0)"/><polygon class="cls-6" points="325.54 113.68 321.33 113.72 321.33 112.88 325.54 112.84 325.54 113.68"/><polygon class="cls-6" points="325.21 114.21 321.67 114.24 321.67 113.87 325.21 113.84 325.21 114.21"/><polygon class="cls-7" points="326.18 124.58 320.79 124.63 320.8 125.45 326.19 125.41 326.18 124.58"/><path class="cls-8" d="M320.8,125.45v.83a.18.18,0,0,0,.17.18l5,0a.17.17,0,0,0,.17-.19v-.82Z" transform="translate(0 0)"/><polygon class="cls-6" points="320.79 124.63 326.18 124.58 326.36 120.57 320.56 120.62 320.79 124.63"/><polygon class="cls-7" points="326.9 108.16 319.85 108.21 319.98 110.35 326.81 110.29 326.9 108.16"/><polygon class="cls-7" points="320.56 120.62 326.36 120.57 326.45 118.44 320.44 118.49 320.56 120.62"/><path class="cls-8" d="M336,124.58l-5.39,0-1-17.41a.22.22,0,0,1,.21-.25l6.73-.06a.24.24,0,0,1,.22.25Z" transform="translate(0 0)"/><polygon class="cls-6" points="335.38 113.68 331.17 113.72 331.17 112.88 335.38 112.84 335.38 113.68"/><polygon class="cls-6" points="335.05 114.21 331.51 114.24 331.51 113.87 335.05 113.84 335.05 114.21"/><polygon class="cls-7" points="336.02 124.58 330.63 124.63 330.63 125.45 336.03 125.41 336.02 124.58"/><path class="cls-8" d="M330.64,125.45v.83a.18.18,0,0,0,.17.18l5.05,0a.17.17,0,0,0,.17-.19v-.82Z" transform="translate(0 0)"/><polygon class="cls-6" points="330.63 124.63 336.02 124.58 336.2 120.57 330.4 120.62 330.63 124.63"/><polygon class="cls-7" points="336.74 108.16 329.69 108.21 329.81 110.35 336.64 110.29 336.74 108.16"/><polygon class="cls-7" points="330.4 120.62 336.2 120.57 336.29 118.44 330.28 118.49 330.4 120.62"/><rect class="cls-7" x="246.08" y="90.95" width="6.12" height="0.92"/><path class="cls-7" d="M252,91.78h-5.52a1.42,1.42,0,0,0-1.34,1.49v4.2A1.42,1.42,0,0,0,246.47,99H252a1.42,1.42,0,0,0,1.34-1.49v-4.2A1.42,1.42,0,0,0,252,91.78Z" transform="translate(0 0)"/><rect class="cls-9" x="245.13" y="93.54" width="8.2" height="3.66"/><path class="cls-9" d="M252,87.46h-5.65a.5.5,0,0,0-.47.52v2.45h6.6V88A.51.51,0,0,0,252,87.46Z" transform="translate(0 0)"/><rect class="cls-10" x="245.9" y="89.19" width="6.6" height="1.24"/><path class="cls-11" d="M252.61,89.91h-6.79a.41.41,0,0,0-.39.43v.35a.4.4,0,0,0,.39.42h6.79a.41.41,0,0,0,.39-.42v-.35A.41.41,0,0,0,252.61,89.91Z" transform="translate(0 0)"/><path class="cls-11" d="M246.65,90.36a.15.15,0,0,1-.15-.17v-2a.15.15,0,1,1,.29,0v2A.15.15,0,0,1,246.65,90.36Z" transform="translate(0 0)"/><path class="cls-11" d="M247.63,90.36a.15.15,0,0,1-.14-.17v-2a.15.15,0,1,1,.29,0v2A.15.15,0,0,1,247.63,90.36Z" transform="translate(0 0)"/><path class="cls-11" d="M248.62,90.36a.16.16,0,0,1-.15-.17v-2a.15.15,0,1,1,.3,0v2A.16.16,0,0,1,248.62,90.36Z" transform="translate(0 0)"/><path class="cls-11" d="M249.61,90.36a.16.16,0,0,1-.15-.17v-2a.15.15,0,1,1,.3,0v2A.16.16,0,0,1,249.61,90.36Z" transform="translate(0 0)"/><path class="cls-11" d="M250.6,90.36a.15.15,0,0,1-.15-.17v-2a.15.15,0,1,1,.29,0v2A.15.15,0,0,1,250.6,90.36Z" transform="translate(0 0)"/><path class="cls-11" d="M251.58,90.36a.15.15,0,0,1-.14-.17v-2a.15.15,0,1,1,.29,0v2A.15.15,0,0,1,251.58,90.36Z" transform="translate(0 0)"/><rect class="cls-7" x="256.41" y="90.95" width="6.12" height="0.92"/><path class="cls-7" d="M262.31,91.78H256.8a1.42,1.42,0,0,0-1.35,1.49v4.2A1.42,1.42,0,0,0,256.8,99h5.51a1.42,1.42,0,0,0,1.35-1.49v-4.2A1.42,1.42,0,0,0,262.31,91.78Z" transform="translate(0 0)"/><rect class="cls-9" x="255.45" y="93.54" width="8.2" height="3.66"/><path class="cls-9" d="M262.35,87.46H256.7a.5.5,0,0,0-.47.52v2.45h6.59V88A.5.5,0,0,0,262.35,87.46Z" transform="translate(0 0)"/><rect class="cls-10" x="256.23" y="89.19" width="6.6" height="1.24"/><path class="cls-11" d="M262.94,89.91h-6.8a.41.41,0,0,0-.38.43v.35a.4.4,0,0,0,.38.42h6.8a.4.4,0,0,0,.38-.42v-.35A.41.41,0,0,0,262.94,89.91Z" transform="translate(0 0)"/><path class="cls-11" d="M257,90.36a.16.16,0,0,1-.15-.17v-2a.15.15,0,1,1,.3,0v2A.16.16,0,0,1,257,90.36Z" transform="translate(0 0)"/><path class="cls-11" d="M258,90.36a.16.16,0,0,1-.15-.17v-2a.15.15,0,1,1,.3,0v2A.16.16,0,0,1,258,90.36Z" transform="translate(0 0)"/><path class="cls-11" d="M259,90.36a.16.16,0,0,1-.15-.17v-2a.15.15,0,1,1,.3,0v2A.16.16,0,0,1,259,90.36Z" transform="translate(0 0)"/><path class="cls-11" d="M259.94,90.36a.15.15,0,0,1-.15-.17v-2a.15.15,0,1,1,.29,0v2A.15.15,0,0,1,259.94,90.36Z" transform="translate(0 0)"/><path class="cls-11" d="M260.92,90.36a.16.16,0,0,1-.15-.17v-2a.15.15,0,1,1,.3,0v2A.16.16,0,0,1,260.92,90.36Z" transform="translate(0 0)"/><path class="cls-11" d="M261.91,90.36a.16.16,0,0,1-.15-.17v-2a.15.15,0,1,1,.3,0v2A.16.16,0,0,1,261.91,90.36Z" transform="translate(0 0)"/><rect class="cls-7" x="266.73" y="90.95" width="6.12" height="0.92"/><path class="cls-7" d="M272.64,91.78h-5.51a1.42,1.42,0,0,0-1.35,1.49v4.2A1.42,1.42,0,0,0,267.13,99h5.51A1.42,1.42,0,0,0,274,97.47v-4.2A1.42,1.42,0,0,0,272.64,91.78Z" transform="translate(0 0)"/><rect class="cls-9" x="265.78" y="93.54" width="8.2" height="3.66"/><path class="cls-9" d="M272.68,87.46H267a.5.5,0,0,0-.47.52v2.45h6.6V88A.5.5,0,0,0,272.68,87.46Z" transform="translate(0 0)"/><rect class="cls-10" x="266.55" y="89.19" width="6.6" height="1.24"/><path class="cls-11" d="M273.26,89.91h-6.79a.41.41,0,0,0-.38.43v.35a.4.4,0,0,0,.38.42h6.79a.4.4,0,0,0,.39-.42v-.35A.41.41,0,0,0,273.26,89.91Z" transform="translate(0 0)"/><path class="cls-11" d="M267.3,90.36a.16.16,0,0,1-.15-.17v-2a.15.15,0,1,1,.3,0v2A.16.16,0,0,1,267.3,90.36Z" transform="translate(0 0)"/><path class="cls-11" d="M268.29,90.36a.15.15,0,0,1-.15-.17v-2a.15.15,0,1,1,.29,0v2A.15.15,0,0,1,268.29,90.36Z" transform="translate(0 0)"/><path class="cls-11" d="M269.27,90.36a.15.15,0,0,1-.14-.17v-2a.15.15,0,0,1,.14-.17.16.16,0,0,1,.15.17v2A.16.16,0,0,1,269.27,90.36Z" transform="translate(0 0)"/><path class="cls-11" d="M270.26,90.36a.16.16,0,0,1-.15-.17v-2a.15.15,0,1,1,.3,0v2A.16.16,0,0,1,270.26,90.36Z" transform="translate(0 0)"/><path class="cls-11" d="M271.25,90.36a.16.16,0,0,1-.15-.17v-2a.15.15,0,1,1,.3,0v2A.16.16,0,0,1,271.25,90.36Z" transform="translate(0 0)"/><path class="cls-11" d="M272.24,90.36a.15.15,0,0,1-.15-.17v-2a.15.15,0,1,1,.29,0v2A.15.15,0,0,1,272.24,90.36Z" transform="translate(0 0)"/><rect class="cls-7" x="365.82" y="90.95" width="6.12" height="0.92"/><path class="cls-7" d="M371.72,91.78h-5.51a1.42,1.42,0,0,0-1.34,1.49v4.2A1.42,1.42,0,0,0,366.21,99h5.51a1.42,1.42,0,0,0,1.35-1.49v-4.2A1.42,1.42,0,0,0,371.72,91.78Z" transform="translate(0 0)"/><rect class="cls-9" x="364.87" y="93.54" width="8.2" height="3.66"/><path class="cls-9" d="M371.76,87.46h-5.65a.5.5,0,0,0-.47.52v2.45h6.59V88A.5.5,0,0,0,371.76,87.46Z" transform="translate(0 0)"/><rect class="cls-10" x="365.64" y="89.19" width="6.6" height="1.24"/><path class="cls-11" d="M372.35,89.91h-6.8a.41.41,0,0,0-.38.43v.35a.4.4,0,0,0,.38.42h6.8a.4.4,0,0,0,.38-.42v-.35A.41.41,0,0,0,372.35,89.91Z" transform="translate(0 0)"/><path class="cls-11" d="M366.39,90.36a.15.15,0,0,1-.15-.17v-2a.15.15,0,1,1,.29,0v2A.15.15,0,0,1,366.39,90.36Z" transform="translate(0 0)"/><path class="cls-11" d="M367.37,90.36a.15.15,0,0,1-.14-.17v-2a.15.15,0,0,1,.14-.17.16.16,0,0,1,.15.17v2A.16.16,0,0,1,367.37,90.36Z" transform="translate(0 0)"/><path class="cls-11" d="M368.36,90.36a.16.16,0,0,1-.15-.17v-2a.15.15,0,1,1,.3,0v2A.16.16,0,0,1,368.36,90.36Z" transform="translate(0 0)"/><path class="cls-11" d="M369.35,90.36a.16.16,0,0,1-.15-.17v-2a.15.15,0,1,1,.3,0v2A.16.16,0,0,1,369.35,90.36Z" transform="translate(0 0)"/><path class="cls-11" d="M370.34,90.36a.15.15,0,0,1-.15-.17v-2a.15.15,0,1,1,.29,0v2A.15.15,0,0,1,370.34,90.36Z" transform="translate(0 0)"/><path class="cls-11" d="M371.32,90.36a.15.15,0,0,1-.14-.17v-2a.15.15,0,0,1,.14-.17.16.16,0,0,1,.15.17v2A.16.16,0,0,1,371.32,90.36Z" transform="translate(0 0)"/><rect class="cls-7" x="354.21" y="90.95" width="6.12" height="0.92"/><path class="cls-7" d="M360.11,91.78H354.6a1.42,1.42,0,0,0-1.35,1.49v4.2A1.42,1.42,0,0,0,354.6,99h5.51a1.42,1.42,0,0,0,1.35-1.49v-4.2A1.42,1.42,0,0,0,360.11,91.78Z" transform="translate(0 0)"/><rect class="cls-9" x="353.25" y="93.54" width="8.2" height="3.66"/><path class="cls-9" d="M360.15,87.46H354.5A.51.51,0,0,0,354,88v2.45h6.6V88A.5.5,0,0,0,360.15,87.46Z" transform="translate(0 0)"/><rect class="cls-10" x="354.02" y="89.19" width="6.6" height="1.24"/><path class="cls-11" d="M360.74,89.91h-6.8a.41.41,0,0,0-.38.43v.35a.4.4,0,0,0,.38.42h6.8a.4.4,0,0,0,.38-.42v-.35A.41.41,0,0,0,360.74,89.91Z" transform="translate(0 0)"/><path class="cls-11" d="M354.77,90.36a.16.16,0,0,1-.15-.17v-2a.15.15,0,1,1,.3,0v2A.16.16,0,0,1,354.77,90.36Z" transform="translate(0 0)"/><path class="cls-11" d="M355.76,90.36a.16.16,0,0,1-.15-.17v-2a.15.15,0,1,1,.3,0v2A.16.16,0,0,1,355.76,90.36Z" transform="translate(0 0)"/><path class="cls-11" d="M356.75,90.36a.15.15,0,0,1-.15-.17v-2a.15.15,0,1,1,.29,0v2A.15.15,0,0,1,356.75,90.36Z" transform="translate(0 0)"/><path class="cls-11" d="M357.73,90.36a.15.15,0,0,1-.14-.17v-2a.15.15,0,1,1,.29,0v2A.15.15,0,0,1,357.73,90.36Z" transform="translate(0 0)"/><path class="cls-11" d="M358.72,90.36a.16.16,0,0,1-.15-.17v-2a.15.15,0,1,1,.3,0v2A.16.16,0,0,1,358.72,90.36Z" transform="translate(0 0)"/><path class="cls-11" d="M359.71,90.36a.16.16,0,0,1-.15-.17v-2a.15.15,0,1,1,.3,0v2A.16.16,0,0,1,359.71,90.36Z" transform="translate(0 0)"/><rect class="cls-6" x="260.45" y="138.36" width="1.98" height="0.62"/><rect class="cls-6" x="247.17" y="138.36" width="1.98" height="0.62"/><path class="cls-6" d="M257.82,139.78h-6.9V136.2a1.07,1.07,0,0,1,1-1.12h4.88a1.07,1.07,0,0,1,1,1.12Zm-6.11-.87H257V136.2a.24.24,0,0,0-.22-.25h-4.88a.24.24,0,0,0-.22.25Z" transform="translate(0 0)"/><rect class="cls-7" x="244.16" y="138.86" width="20.42" height="14.96" rx="1.19"/><path class="cls-8" d="M258,145.35h-2.23v-2.47a.33.33,0,0,0-.31-.34h-1.66a.33.33,0,0,0-.31.34v2.47h-2.23a.33.33,0,0,0-.31.34v1.84a.33.33,0,0,0,.31.34h2.23v2.47a.33.33,0,0,0,.31.34h1.66a.33.33,0,0,0,.31-.34v-2.47H258a.33.33,0,0,0,.31-.34v-1.84A.33.33,0,0,0,258,145.35Z" transform="translate(0 0)"/><rect class="cls-6" x="282.86" y="138.36" width="1.98" height="0.62"/><rect class="cls-6" x="269.58" y="138.36" width="1.98" height="0.62"/><path class="cls-6" d="M280.23,139.78h-6.9V136.2a1.07,1.07,0,0,1,1-1.12h4.88a1.07,1.07,0,0,1,1,1.12Zm-6.11-.87h5.32V136.2a.24.24,0,0,0-.22-.25h-4.88a.24.24,0,0,0-.22.25Z" transform="translate(0 0)"/><rect class="cls-7" x="266.57" y="138.86" width="20.42" height="14.96" rx="1.19"/><path class="cls-8" d="M280.39,145.35h-2.23v-2.47a.33.33,0,0,0-.31-.34h-1.66a.33.33,0,0,0-.31.34v2.47h-2.23a.33.33,0,0,0-.31.34v1.84a.33.33,0,0,0,.31.34h2.23v2.47a.33.33,0,0,0,.31.34h1.66a.33.33,0,0,0,.31-.34v-2.47h2.23a.33.33,0,0,0,.31-.34v-1.84A.33.33,0,0,0,280.39,145.35Z" transform="translate(0 0)"/><rect class="cls-6" x="305.27" y="138.36" width="1.98" height="0.62"/><rect class="cls-6" x="291.99" y="138.36" width="1.98" height="0.62"/><path class="cls-6" d="M302.64,139.78h-6.9V136.2a1.07,1.07,0,0,1,1-1.12h4.88a1.07,1.07,0,0,1,1,1.12Zm-6.11-.87h5.32V136.2a.24.24,0,0,0-.22-.25h-4.88a.24.24,0,0,0-.22.25Z" transform="translate(0 0)"/><rect class="cls-7" x="288.98" y="138.86" width="20.42" height="14.96" rx="1.19"/><path class="cls-8" d="M302.8,145.35h-2.23v-2.47a.33.33,0,0,0-.31-.34H298.6a.33.33,0,0,0-.31.34v2.47h-2.23a.33.33,0,0,0-.31.34v1.84a.33.33,0,0,0,.31.34h2.23v2.47a.33.33,0,0,0,.31.34h1.66a.33.33,0,0,0,.31-.34v-2.47h2.23a.33.33,0,0,0,.31-.34v-1.84A.33.33,0,0,0,302.8,145.35Z" transform="translate(0 0)"/><rect class="cls-7" x="326.26" y="145.75" width="6.12" height="0.92"/><path class="cls-7" d="M332.17,146.58h-5.52a1.42,1.42,0,0,0-1.34,1.49v4.2a1.42,1.42,0,0,0,1.34,1.49h5.52a1.42,1.42,0,0,0,1.34-1.49v-4.2A1.42,1.42,0,0,0,332.17,146.58Z" transform="translate(0 0)"/><rect class="cls-9" x="325.31" y="148.34" width="8.2" height="3.66"/><path class="cls-9" d="M332.2,142.26h-5.65a.49.49,0,0,0-.47.52v2.45h6.6v-2.45A.5.5,0,0,0,332.2,142.26Z" transform="translate(0 0)"/><rect class="cls-10" x="326.08" y="143.99" width="6.6" height="1.24"/><path class="cls-11" d="M332.79,144.71H326a.4.4,0,0,0-.39.42v.36a.4.4,0,0,0,.39.42h6.79a.41.41,0,0,0,.39-.42v-.36A.41.41,0,0,0,332.79,144.71Z" transform="translate(0 0)"/><path class="cls-11" d="M326.83,145.16a.17.17,0,0,1-.15-.17v-2a.16.16,0,0,1,.15-.16.15.15,0,0,1,.14.16v2A.16.16,0,0,1,326.83,145.16Z" transform="translate(0 0)"/><path class="cls-11" d="M327.81,145.16a.16.16,0,0,1-.14-.17v-2a.15.15,0,0,1,.14-.16.15.15,0,0,1,.15.16v2A.16.16,0,0,1,327.81,145.16Z" transform="translate(0 0)"/><path class="cls-11" d="M328.8,145.16a.17.17,0,0,1-.15-.17v-2a.15.15,0,1,1,.3,0v2A.17.17,0,0,1,328.8,145.16Z" transform="translate(0 0)"/><path class="cls-11" d="M329.79,145.16a.17.17,0,0,1-.15-.17v-2a.15.15,0,1,1,.3,0v2A.17.17,0,0,1,329.79,145.16Z" transform="translate(0 0)"/><path class="cls-11" d="M330.78,145.16a.17.17,0,0,1-.15-.17v-2a.16.16,0,0,1,.15-.16.15.15,0,0,1,.14.16v2A.16.16,0,0,1,330.78,145.16Z" transform="translate(0 0)"/><path class="cls-11" d="M331.76,145.16a.16.16,0,0,1-.14-.17v-2a.15.15,0,0,1,.14-.16.15.15,0,0,1,.15.16v2A.16.16,0,0,1,331.76,145.16Z" transform="translate(0 0)"/><rect class="cls-7" x="337.24" y="145.75" width="6.12" height="0.92"/><path class="cls-7" d="M343.15,146.58h-5.51a1.42,1.42,0,0,0-1.35,1.49v4.2a1.42,1.42,0,0,0,1.35,1.49h5.51a1.42,1.42,0,0,0,1.34-1.49v-4.2A1.42,1.42,0,0,0,343.15,146.58Z" transform="translate(0 0)"/><rect class="cls-9" x="336.29" y="148.34" width="8.2" height="3.66"/><path class="cls-9" d="M343.19,142.26h-5.66a.49.49,0,0,0-.47.52v2.45h6.6v-2.45A.49.49,0,0,0,343.19,142.26Z" transform="translate(0 0)"/><rect class="cls-10" x="337.06" y="143.99" width="6.6" height="1.24"/><path class="cls-11" d="M343.78,144.71H337a.4.4,0,0,0-.38.42v.36a.4.4,0,0,0,.38.42h6.8a.4.4,0,0,0,.38-.42v-.36A.4.4,0,0,0,343.78,144.71Z" transform="translate(0 0)"/><path class="cls-11" d="M337.81,145.16a.17.17,0,0,1-.15-.17v-2a.15.15,0,1,1,.3,0v2A.17.17,0,0,1,337.81,145.16Z" transform="translate(0 0)"/><path class="cls-11" d="M338.8,145.16a.17.17,0,0,1-.15-.17v-2a.16.16,0,0,1,.15-.16.15.15,0,0,1,.14.16v2A.16.16,0,0,1,338.8,145.16Z" transform="translate(0 0)"/><path class="cls-11" d="M339.78,145.16a.16.16,0,0,1-.14-.17v-2a.15.15,0,0,1,.14-.16.15.15,0,0,1,.15.16v2A.16.16,0,0,1,339.78,145.16Z" transform="translate(0 0)"/><path class="cls-11" d="M340.77,145.16a.17.17,0,0,1-.15-.17v-2a.15.15,0,1,1,.3,0v2A.17.17,0,0,1,340.77,145.16Z" transform="translate(0 0)"/><path class="cls-11" d="M341.76,145.16a.17.17,0,0,1-.15-.17v-2a.15.15,0,1,1,.3,0v2A.17.17,0,0,1,341.76,145.16Z" transform="translate(0 0)"/><path class="cls-11" d="M342.75,145.16a.17.17,0,0,1-.15-.17v-2a.16.16,0,0,1,.15-.16.15.15,0,0,1,.14.16v2A.16.16,0,0,1,342.75,145.16Z" transform="translate(0 0)"/><rect class="cls-7" x="348.23" y="145.75" width="6.12" height="0.92"/><path class="cls-7" d="M354.13,146.58h-5.51a1.42,1.42,0,0,0-1.35,1.49v4.2a1.43,1.43,0,0,0,1.35,1.49h5.51a1.43,1.43,0,0,0,1.35-1.49v-4.2A1.42,1.42,0,0,0,354.13,146.58Z" transform="translate(0 0)"/><rect class="cls-9" x="347.27" y="148.34" width="8.2" height="3.66"/><path class="cls-9" d="M354.17,142.26h-5.65a.49.49,0,0,0-.47.52v2.45h6.59v-2.45A.49.49,0,0,0,354.17,142.26Z" transform="translate(0 0)"/><rect class="cls-10" x="348.05" y="143.99" width="6.6" height="1.24"/><path class="cls-11" d="M354.76,144.71H348a.4.4,0,0,0-.38.42v.36a.4.4,0,0,0,.38.42h6.8a.4.4,0,0,0,.38-.42v-.36A.4.4,0,0,0,354.76,144.71Z" transform="translate(0 0)"/><path class="cls-11" d="M348.79,145.16a.17.17,0,0,1-.15-.17v-2a.15.15,0,1,1,.3,0v2A.17.17,0,0,1,348.79,145.16Z" transform="translate(0 0)"/><path class="cls-11" d="M349.78,145.16a.17.17,0,0,1-.15-.17v-2a.15.15,0,1,1,.3,0v2A.17.17,0,0,1,349.78,145.16Z" transform="translate(0 0)"/><path class="cls-11" d="M350.77,145.16a.17.17,0,0,1-.15-.17v-2a.16.16,0,0,1,.15-.16.15.15,0,0,1,.14.16v2A.16.16,0,0,1,350.77,145.16Z" transform="translate(0 0)"/><path class="cls-11" d="M351.75,145.16a.16.16,0,0,1-.14-.17v-2a.15.15,0,0,1,.14-.16.15.15,0,0,1,.15.16v2A.16.16,0,0,1,351.75,145.16Z" transform="translate(0 0)"/><path class="cls-11" d="M352.74,145.16a.17.17,0,0,1-.15-.17v-2a.15.15,0,1,1,.3,0v2A.17.17,0,0,1,352.74,145.16Z" transform="translate(0 0)"/><path class="cls-11" d="M353.73,145.16a.17.17,0,0,1-.15-.17v-2a.15.15,0,1,1,.3,0v2A.17.17,0,0,1,353.73,145.16Z" transform="translate(0 0)"/><rect class="cls-7" x="359.21" y="145.75" width="6.12" height="0.92"/><path class="cls-7" d="M365.11,146.58H359.6a1.42,1.42,0,0,0-1.34,1.49v4.2a1.42,1.42,0,0,0,1.34,1.49h5.51a1.42,1.42,0,0,0,1.35-1.49v-4.2A1.42,1.42,0,0,0,365.11,146.58Z" transform="translate(0 0)"/><rect class="cls-9" x="358.26" y="148.34" width="8.2" height="3.66"/><path class="cls-9" d="M365.15,142.26H359.5a.49.49,0,0,0-.47.52v2.45h6.59v-2.45A.49.49,0,0,0,365.15,142.26Z" transform="translate(0 0)"/><rect class="cls-10" x="359.03" y="143.99" width="6.6" height="1.24"/><path class="cls-11" d="M365.74,144.71h-6.8a.4.4,0,0,0-.38.42v.36a.4.4,0,0,0,.38.42h6.8a.4.4,0,0,0,.38-.42v-.36A.4.4,0,0,0,365.74,144.71Z" transform="translate(0 0)"/><path class="cls-11" d="M359.77,145.16a.16.16,0,0,1-.14-.17v-2a.15.15,0,0,1,.14-.16.15.15,0,0,1,.15.16v2A.16.16,0,0,1,359.77,145.16Z" transform="translate(0 0)"/><path class="cls-11" d="M360.76,145.16a.17.17,0,0,1-.15-.17v-2a.15.15,0,1,1,.3,0v2A.17.17,0,0,1,360.76,145.16Z" transform="translate(0 0)"/><path class="cls-11" d="M361.75,145.16a.17.17,0,0,1-.15-.17v-2a.15.15,0,1,1,.3,0v2A.17.17,0,0,1,361.75,145.16Z" transform="translate(0 0)"/><path class="cls-11" d="M362.74,145.16a.17.17,0,0,1-.15-.17v-2a.15.15,0,1,1,.3,0v2A.17.17,0,0,1,362.74,145.16Z" transform="translate(0 0)"/><path class="cls-11" d="M363.72,145.16a.16.16,0,0,1-.14-.17v-2a.15.15,0,0,1,.14-.16.15.15,0,0,1,.15.16v2A.16.16,0,0,1,363.72,145.16Z" transform="translate(0 0)"/><path class="cls-11" d="M364.71,145.16a.17.17,0,0,1-.15-.17v-2a.15.15,0,1,1,.3,0v2A.17.17,0,0,1,364.71,145.16Z" transform="translate(0 0)"/><rect class="cls-7" x="370.19" y="145.75" width="6.12" height="0.92"/><path class="cls-7" d="M376.1,146.58h-5.52a1.42,1.42,0,0,0-1.34,1.49v4.2a1.42,1.42,0,0,0,1.34,1.49h5.52a1.42,1.42,0,0,0,1.34-1.49v-4.2A1.42,1.42,0,0,0,376.1,146.58Z" transform="translate(0 0)"/><rect class="cls-9" x="369.24" y="148.34" width="8.2" height="3.66"/><path class="cls-9" d="M376.13,142.26h-5.65a.49.49,0,0,0-.47.52v2.45h6.6v-2.45A.5.5,0,0,0,376.13,142.26Z" transform="translate(0 0)"/><rect class="cls-10" x="370.01" y="143.99" width="6.6" height="1.24"/><path class="cls-11" d="M376.72,144.71h-6.79a.41.41,0,0,0-.39.42v.36a.41.41,0,0,0,.39.42h6.79a.41.41,0,0,0,.39-.42v-.36A.41.41,0,0,0,376.72,144.71Z" transform="translate(0 0)"/><path class="cls-11" d="M370.76,145.16a.17.17,0,0,1-.15-.17v-2a.15.15,0,1,1,.3,0v2A.17.17,0,0,1,370.76,145.16Z" transform="translate(0 0)"/><path class="cls-11" d="M371.74,145.16a.16.16,0,0,1-.14-.17v-2a.15.15,0,0,1,.14-.16.15.15,0,0,1,.15.16v2A.16.16,0,0,1,371.74,145.16Z" transform="translate(0 0)"/><path class="cls-11" d="M372.73,145.16a.17.17,0,0,1-.15-.17v-2a.15.15,0,1,1,.3,0v2A.17.17,0,0,1,372.73,145.16Z" transform="translate(0 0)"/><path class="cls-11" d="M373.72,145.16a.17.17,0,0,1-.15-.17v-2a.15.15,0,1,1,.3,0v2A.17.17,0,0,1,373.72,145.16Z" transform="translate(0 0)"/><path class="cls-11" d="M374.71,145.16a.17.17,0,0,1-.15-.17v-2a.15.15,0,1,1,.3,0v2A.17.17,0,0,1,374.71,145.16Z" transform="translate(0 0)"/><path class="cls-11" d="M375.69,145.16a.16.16,0,0,1-.14-.17v-2a.15.15,0,0,1,.14-.16.15.15,0,0,1,.15.16v2A.16.16,0,0,1,375.69,145.16Z" transform="translate(0 0)"/><rect class="cls-7" x="314.65" y="145.75" width="6.12" height="0.92"/><path class="cls-7" d="M320.55,146.58H315a1.42,1.42,0,0,0-1.35,1.49v4.2a1.43,1.43,0,0,0,1.35,1.49h5.51a1.43,1.43,0,0,0,1.35-1.49v-4.2A1.42,1.42,0,0,0,320.55,146.58Z" transform="translate(0 0)"/><rect class="cls-9" x="313.69" y="148.34" width="8.2" height="3.66"/><path class="cls-9" d="M320.59,142.26h-5.65a.49.49,0,0,0-.47.52v2.45h6.59v-2.45A.49.49,0,0,0,320.59,142.26Z" transform="translate(0 0)"/><rect class="cls-10" x="314.47" y="143.99" width="6.6" height="1.24"/><path class="cls-11" d="M321.18,144.71h-6.8a.4.4,0,0,0-.38.42v.36a.4.4,0,0,0,.38.42h6.8a.4.4,0,0,0,.38-.42v-.36A.4.4,0,0,0,321.18,144.71Z" transform="translate(0 0)"/><path class="cls-11" d="M315.21,145.16a.17.17,0,0,1-.15-.17v-2a.15.15,0,1,1,.3,0v2A.17.17,0,0,1,315.21,145.16Z" transform="translate(0 0)"/><path class="cls-11" d="M316.2,145.16a.17.17,0,0,1-.15-.17v-2a.15.15,0,1,1,.3,0v2A.17.17,0,0,1,316.2,145.16Z" transform="translate(0 0)"/><path class="cls-11" d="M317.19,145.16A.17.17,0,0,1,317,145v-2a.16.16,0,0,1,.15-.16.15.15,0,0,1,.14.16v2A.16.16,0,0,1,317.19,145.16Z" transform="translate(0 0)"/><path class="cls-11" d="M318.17,145.16A.16.16,0,0,1,318,145v-2a.15.15,0,0,1,.14-.16.15.15,0,0,1,.15.16v2A.16.16,0,0,1,318.17,145.16Z" transform="translate(0 0)"/><path class="cls-11" d="M319.16,145.16A.17.17,0,0,1,319,145v-2a.15.15,0,1,1,.3,0v2A.17.17,0,0,1,319.16,145.16Z" transform="translate(0 0)"/><path class="cls-11" d="M320.15,145.16A.17.17,0,0,1,320,145v-2a.15.15,0,1,1,.3,0v2A.17.17,0,0,1,320.15,145.16Z" transform="translate(0 0)"/><path class="cls-12" d="M329.68,120.57c.44-8.79.51-26-11.18-27.71-12.53-1.78-19.5,0-22.12,10.21-1.9,7.37-1.68,14.41-1.79,22.33-.16,11.32-.22,23.21-.33,26.35,11.5,11.6,30.5,7.62,34.73,1.44C329.08,145.12,328.71,139.84,329.68,120.57Z" transform="translate(0 0)"/><path class="cls-13" d="M290.16,160.05c.52-2.63,2-8,4-14.67,2.28-7.58,7.77-13.85,10.25-13.85l-7.07,13.7-2.19,14.54s.17,5.69-2.39,5.63C288.83,165.3,289.58,163,290.16,160.05Z" transform="translate(0 0)"/><path class="cls-2" d="M309.91,129.68c9.8.27,14.8,6.27,12.81,20-1.82,12.54.85,28.76,1.13,34.82-24.16,4.79-30.36-2.32-30.36-2.32A242.61,242.61,0,0,1,296,152.78c.32-2-.88-5-.32-6.83.85-2.78,2.46-4.32,5.23-9.66C303.3,131.76,305.56,129.56,309.91,129.68Z" transform="translate(0 0)"/><path class="cls-14" d="M318,170.19c-3-1.55-3.24-4.84-2.86-8.17.31-2.79.36-10.44.41-13.69.09-7.1-.59-14,2.81-14.76a2.48,2.48,0,0,1,1.63.18c2.76,3.21,3.78,8.41,2.69,16-1,6.63-.67,14.3-.14,20.95C321.65,171.63,320.08,171.24,318,170.19Z" transform="translate(0 0)"/><path class="cls-15" d="M302.42,158.24a92.06,92.06,0,0,1,14.09,3.39c-2.47.36-8.62,1.15-9.49,4.15-3.28-1.78-6.24-3.48-7.37-4.24C297,159.76,300.75,158.19,302.42,158.24Z" transform="translate(0 0)"/><path class="cls-16" d="M302.39,157.37c-2.3-1.88-7.17-4.52-8.63,1C293.22,159.72,299.08,158.71,302.39,157.37Z" transform="translate(0 0)"/><path class="cls-17" d="M306.61,130.1a10.67,10.67,0,0,1,3.3-.42,17.78,17.78,0,0,1,5.44.93c-.76,3.26-8,14.14-9.67,19.49C304.87,141,304.74,135,306.61,130.1Z" transform="translate(0 0)"/><path class="cls-18" d="M293.14,158.6c5.47-1.91,12.95-1.74,17.69-2.09,5.67-.43,4.93,4.86,4.93,4.86a29.14,29.14,0,0,0-7.58.27c-4.36.66-13.08,3.87-15.4,3.76s-3.27-3-2.65-4.58C290.67,159.4,292.41,158.86,293.14,158.6Z" transform="translate(0 0)"/><path class="cls-2" d="M290.13,160.82c.54-1.42,2.28-2,3-2.22,5.42-1.89,12.82-1.74,17.56-2.08a7.88,7.88,0,0,1,1.14,4.75,35.11,35.11,0,0,0-3.66.37c-4.36.66-13.08,3.87-15.4,3.76S289.51,162.41,290.13,160.82Z" transform="translate(0 0)"/><path class="cls-18" d="M307.33,125.29l0,5.61s.08,2.32,3.6,2.32,3.56-2.29,3.56-2.29l0-5.64Z" transform="translate(0 0)"/><path class="cls-19" d="M307.33,125.28v3.18s.08,1,3.6,1,3.56-1,3.56-1v-3.2Z" transform="translate(0 0)"/><path class="cls-18" d="M297.41,108.93c.34,7.76,4.52,17.8,11.67,18.63,9.44,1.11,14.36-8.83,15.3-16.94S319.21,96,311.16,95.08,297.06,100.77,297.41,108.93Z" transform="translate(0 0)"/><path class="cls-20" d="M300.23,113.62c0,.23.68.42,1.52.42s1.51-.19,1.51-.42-.68-.41-1.51-.41S300.23,113.39,300.23,113.62Z" transform="translate(0 0)"/><path class="cls-21" d="M307.18,106.81c.39,1.1,1.7,5.09-1.43,6s-3.25-4.2-3.25-4.2S305.75,107.26,307.18,106.81Z" transform="translate(0 0)"/><path class="cls-22" d="M306.38,106.7c-3.46.62-5.58,2.84-2.43,2.06S308.19,106.37,306.38,106.7Z" transform="translate(0 0)"/><path class="cls-23" d="M304.66,112.69c.54-2,2.69-1.73,2.95-.16" transform="translate(0 0)"/><path class="cls-18" d="M322,112.81c-.52,2,.16,3.88,1.52,4.23s2.88-1,3.39-3-.16-3.87-1.52-4.23S322.5,110.83,322,112.81Z" transform="translate(0 0)"/><path class="cls-24" d="M311.74,91.27l-2.3.1a15.8,15.8,0,0,0-9.17,5.54c-1,1.17-2.7,4.75-2.59,7.08,0,.77,5.68-5.57,7.58-6.16,3.39-1.06,8.43-1.13,11.1,1.06s7.24,10.59,6.57,13.94c1.71-2,3.18-2.38,3.94-5.29a12.3,12.3,0,0,0-1.73-9.94C321.7,92.53,317,92.33,311.74,91.27Z" transform="translate(0 0)"/><path class="cls-25" d="M296.23,110.66s22.28-13.86,22.23-16.94-13.17-4.31-17.82.89C295.11,100.79,295.39,106.34,296.23,110.66Z" transform="translate(0 0)"/><path class="cls-26" d="M317.39,95.49c-7.71,1.38-24.34,15-17.66,25-1.8-5.18,1.93-9.31,5.95-11.14,2.95-1.34,5.84-2.06,8.08-4.75,1.39-1.68,4.86-8.15,3.62-10.12Z" transform="translate(0 0)"/><path class="cls-27" d="M313.36,106.81c-.39,1.1-1.7,5.09,1.43,6s3.25-4.2,3.25-4.2S314.79,107.26,313.36,106.81Z" transform="translate(0 0)"/><path class="cls-28" d="M314.15,106.7c3.47.62,5.58,2.84,2.44,2.06S312.35,106.37,314.15,106.7Z" transform="translate(0 0)"/><path class="cls-23" d="M315.88,112.69c-.55-2-2.69-1.73-2.95-.16" transform="translate(0 0)"/><path class="cls-20" d="M317.11,113.62c0,.23.68.42,1.52.42s1.52-.19,1.52-.42-.68-.41-1.52-.41S317.11,113.39,317.11,113.62Z" transform="translate(0 0)"/><path class="cls-29" d="M311,114.52a5.15,5.15,0,0,0-1.38-.25,1.69,1.69,0,0,0-1.24.34c-.34.26-.22.76.08,1.1a5.55,5.55,0,0,0,1.07.9,3.71,3.71,0,0,1-1.22-.77,1.26,1.26,0,0,1-.36-.67.79.79,0,0,1,.25-.75,1.85,1.85,0,0,1,1.44-.35A3.76,3.76,0,0,1,311,114.52Z" transform="translate(0 0)"/><path class="cls-29" d="M312.8,119.74a1.44,1.44,0,0,1-.51,1.34,2.26,2.26,0,0,1-1.37.6,4,4,0,0,1-1.47-.21c-.23-.08-.46-.18-.68-.27l-.63-.38a6.58,6.58,0,0,0,2.75.56,2.09,2.09,0,0,0,1.25-.47A1.55,1.55,0,0,0,312.8,119.74Z" transform="translate(0 0)"/><path class="cls-30" d="M316.51,161.63l.81.27s6.9,4.84,6.63,6.66c-.45,3.07-2.19,3.8-5.58,2.76-1.95-.6-6.95-3.15-11.35-5.54C307.89,162.78,314,162,316.51,161.63Z" transform="translate(0 0)"/><path class="cls-2" d="M316.17,148.13c.09-7.09-.59-14,2.81-14.76,2.14-.49,4.13,2,5,5,.9,3.24,1.06,9.13,1,15.7a125.65,125.65,0,0,1-.88,13.95c-.43,3.6-3.69,3.4-5.4,2.49-2.63-1.41-3.27-5.4-2.89-8.74C316.07,159,316.12,151.39,316.17,148.13Z" transform="translate(0 0)"/><path class="cls-14" d="M298,148.5c-.1.68,3.4,1.72,7.82,2.34s8.06.56,8.15-.11-3.4-1.73-7.81-2.34S298,147.83,298,148.5Z" transform="translate(0 0)"/><path class="cls-15" d="M314.49,129.84a5,5,0,0,1,2.3,2.79c-.88.69-1.9,2.34-3.05,3.44a9.1,9.1,0,0,1,1.32.88s-7.43,10-9.38,13.15c1-4.3,6.93-14.34,7.73-16a8.17,8.17,0,0,0,1.06-3.21C314.47,130.34,314.49,129.84,314.49,129.84Z" transform="translate(0 0)"/><path class="cls-15" d="M307.32,129.59a5.56,5.56,0,0,0-2.31,1.83c-.08,1.27.06,3.61.06,3.61l-1.33.1s-.48,9.45,1.94,15a106.37,106.37,0,0,1-.27-15.18,7.26,7.26,0,0,1,1.9-4C307.31,130.29,307.32,129.59,307.32,129.59Z" transform="translate(0 0)"/><rect class="cls-31" x="223.2" y="172.25" width="170.85" height="76.34"/><rect class="cls-32" x="223.2" y="172.25" width="170.85" height="7.08"/><rect class="cls-32" x="223.2" y="241.5" width="170.85" height="7.08"/><rect class="cls-33" x="218.61" y="168.22" width="180.02" height="6.45" rx="3.23"/><path class="cls-33" d="M395.4,253.61H221.83a3.22,3.22,0,0,1-3.22-3.23h0a3.22,3.22,0,0,1,3.22-3.22H395.4a3.22,3.22,0,0,1,3.23,3.22h0A3.22,3.22,0,0,1,395.4,253.61Z" transform="translate(0 0)"/><path class="cls-2" d="M308.62,193.51a16.88,16.88,0,1,0,16.87,16.87A16.87,16.87,0,0,0,308.62,193.51Zm10.85,20.79h-6.94v6.94a1.8,1.8,0,0,1-1.8,1.8H306.5a1.81,1.81,0,0,1-1.8-1.8V214.3h-6.94a1.81,1.81,0,0,1-1.8-1.8v-4.23a1.8,1.8,0,0,1,1.8-1.8h6.94v-6.94a1.8,1.8,0,0,1,1.8-1.8h4.23a1.79,1.79,0,0,1,1.8,1.8v6.94h6.94a1.8,1.8,0,0,1,1.81,1.8v4.23A1.81,1.81,0,0,1,319.47,214.3Z" transform="translate(0 0)"/><circle class="cls-34" cx="308.62" cy="210.38" r="19.66"/><path class="cls-35" d="M218.7,172.18a3.22,3.22,0,0,0,3.13,2.49H395.4a3.23,3.23,0,0,0,3.14-2.49Z" transform="translate(0 0)"/><path class="cls-35" d="M218.7,251.12a3.22,3.22,0,0,0,3.13,2.49H395.4a3.23,3.23,0,0,0,3.14-2.49Z" transform="translate(0 0)"/><path class="cls-31" d="M105.18,9.49c10.06,9.63,21.44,23.74,32.38,33.09,13.22,11.3,48.41,16.21,67.21-5.37,11-12.59,24.88-30,40.95-37.21H92.55A64.08,64.08,0,0,1,105.18,9.49Z" transform="translate(0 0)"/><path class="cls-31" d="M435.62,159.12c.75,9.57,3.6,18.84,6.83,27.87,2.33,6.5,4.88,12.92,7.55,19.29V112.89A66.43,66.43,0,0,0,435.62,159.12Z" transform="translate(0 0)"/><path class="cls-31" d="M90.55,247.94C63,222.39,22.47,217.81,0,234.88V296.5A3.5,3.5,0,0,0,3.5,300H244.38c-5.92-19.56-48.3-15.55-68.63-16.41C143.79,282.24,115.43,271,90.55,247.94Z" transform="translate(0 0)"/></g></g></svg>