<?xml version="1.0" encoding="utf-8"?>
<!-- Generator: Adobe Illustrator 25.0.0, SVG Export Plug-In . SVG Version: 6.00 Build 0)  -->
<svg version="1.1" id="圖層_1" xmlns="http://www.w3.org/2000/svg" xmlns:xlink="http://www.w3.org/1999/xlink" x="0px" y="0px"
	 viewBox="0 0 1080 1080" style="enable-background:new 0 0 1080 1080;" xml:space="preserve">
<style type="text/css">
	.st0{fill:#EDCAB7;}
	.st1{fill:#B86960;}
	.st2{fill:none;stroke:#B86960;stroke-miterlimit:10;}
	.st3{fill:#FDEFD8;}
</style>
<g>
	<path class="st0" d="M966.31,1047.29H113.33c-44.58,0-80.72-36.14-80.72-80.72V113.59c0-44.58,36.14-80.72,80.72-80.72h852.98
		c44.58,0,80.72,36.14,80.72,80.72v852.98C1047.03,1011.15,1010.89,1047.29,966.31,1047.29z"/>
</g>
<g>
	<g>
		<path class="st1" d="M749.35,602.77h-7.6V525.8c0-12.8,10.41-23.21,23.21-23.21s23.21,10.41,23.21,23.21l0.65,72.44l-7.6,0.07
			l-0.65-72.48c0-8.64-7-15.64-15.61-15.64s-15.61,7-15.61,15.61V602.77z"/>
	</g>
	<g>
		<path class="st2" d="M769.49,610.57"/>
	</g>
	<g>
		<path class="st1" d="M733.82,615.07h-7.6v-76.97c0-11.58,8.64-21.47,20.11-23.01l1.01,7.53c-7.71,1.03-13.51,7.68-13.51,15.47
			V615.07z"/>
	</g>
	<g>
		<path class="st1" d="M717.79,630.59h-7.6v-76.97c0-11.29,8.07-20.91,19.18-22.86c1.31-0.23,2.65-0.35,4.03-0.35v7.6
			c-0.93,0-1.84,0.08-2.72,0.23c-7.47,1.31-12.89,7.78-12.89,15.37V630.59z"/>
	</g>
	<g>
		<path class="st1" d="M702.33,643.86h-7.6v-53.97c0-10.96,7.78-20.52,18.5-22.73l1.54,7.45c-7.2,1.48-12.43,7.91-12.43,15.29
			V643.86z"/>
	</g>
	<g>
		<path class="st1" d="M651.01,867.96h-83.94V731.14c0-22.28,11.8-43,30.81-54.06c20.26-11.79,46.69-20.8,78.59-26.78
			c7.42-1.39,14.36-4.76,20.07-9.74l56.86-49.69c5.11-4.09,11.4-5.85,17.73-5.09c6.32,0.76,11.99,3.93,15.97,8.92
			c3.98,4.99,5.78,11.23,5.07,17.57c-0.4,3.53-1.55,6.86-3.35,9.8c-0.1,11.54-5.82,89.85-137.81,147.37V867.96z M574.67,860.36
			h68.74v-95.91l2.3-0.99c107.71-46.23,129.83-107.37,134.36-131.73c-16.86,17.51-92.95,93.75-133.14,90.66l0.56-7.58
			c41.25,3.06,129.8-91.14,130.7-92.09c3.8-3.08,5.94-6.96,6.43-11.28c0.49-4.32-0.74-8.58-3.46-11.98
			c-2.73-3.42-6.62-5.6-10.95-6.12c-4.31-0.5-8.56,0.68-11.94,3.37l-56.73,49.58c-6.73,5.88-14.91,9.85-23.67,11.49
			c-31.04,5.82-56.66,14.53-76.17,25.88c-16.67,9.71-27.03,27.9-27.03,47.49V860.36z"/>
	</g>
</g>
<g>
	<rect x="570.87" y="828.57" class="st3" width="76.34" height="35.58"/>
	<path class="st1" d="M651.01,867.96h-83.94v-43.18h83.94V867.96z M574.67,860.36h68.74v-27.98h-68.74V860.36z"/>
</g>
<g>
	<g>
		<path class="st1" d="M337.89,602.77h-7.6V525.8c0-8.61-7-15.61-15.61-15.61c-8.61,0-15.61,7-15.61,15.61l-0.65,72.51l-7.6-0.07
			l0.65-72.48c0-12.76,10.41-23.18,23.21-23.18c12.8,0,23.21,10.41,23.21,23.21V602.77z"/>
	</g>
	<g>
		<path class="st2" d="M310.15,610.57"/>
	</g>
	<g>
		<path class="st1" d="M353.41,615.07h-7.6v-76.97c0-7.79-5.81-14.44-13.51-15.47l1.01-7.53c11.46,1.53,20.11,11.42,20.11,23.01
			V615.07z"/>
	</g>
	<g>
		<path class="st1" d="M369.45,630.59h-7.6v-76.97c0-7.59-5.42-14.06-12.89-15.37c-0.89-0.16-1.79-0.24-2.72-0.24v-7.6
			c1.37,0,2.72,0.12,4.03,0.35c11.11,1.95,19.18,11.57,19.18,22.86V630.59z"/>
	</g>
	<g>
		<path class="st1" d="M384.91,643.86h-7.6v-53.97c0-7.37-5.23-13.8-12.43-15.29l1.54-7.45c10.72,2.21,18.5,11.77,18.5,22.73V643.86
			z"/>
	</g>
	<g>
		<path class="st1" d="M512.56,867.96h-83.94v-98.51C296.8,712,290.92,633.82,290.8,622.12c-1.77-2.9-2.94-6.27-3.34-9.85
			c-0.71-6.34,1.09-12.58,5.07-17.57c3.98-4.99,9.66-8.16,15.98-8.92c6.35-0.78,12.62,1,17.6,4.98l56.99,49.79
			c5.7,4.98,12.64,8.35,20.06,9.74c31.9,5.98,58.34,14.99,78.6,26.78c19,11.06,30.81,31.78,30.81,54.06V867.96z M436.22,860.36
			h68.74V731.14c0-19.59-10.36-37.78-27.03-47.49c-19.5-11.35-45.13-20.06-76.17-25.89c-8.75-1.64-16.93-5.61-23.66-11.49
			l-56.86-49.69c-3.25-2.59-7.51-3.81-11.81-3.26c-4.33,0.52-8.22,2.7-10.95,6.12c-2.71,3.4-3.94,7.65-3.45,11.98
			c0.48,4.32,2.62,8.2,6.02,10.91c1.3,1.32,89.83,95.52,131.1,92.46l0.56,7.58c-40.22,2.91-115.41-72.28-133.13-90.62
			c4.54,24.39,26.69,85.49,134.35,131.7l2.3,0.99V860.36z"/>
	</g>
</g>
<g>
	
		<rect x="432.42" y="828.57" transform="matrix(-1 -4.484292e-11 4.484292e-11 -1 941.188 1692.7318)" class="st3" width="76.34" height="35.58"/>
	<path class="st1" d="M512.56,867.96h-83.94v-43.18h83.94V867.96z M436.22,860.36h68.74v-27.98h-68.74V860.36z"/>
</g>
<g>
	<path class="st1" d="M540.88,634.39C436.73,634.39,352,549.66,352,445.51s84.73-188.88,188.88-188.88s188.88,84.73,188.88,188.88
		S645.03,634.39,540.88,634.39z M540.88,264.23c-99.96,0-181.28,81.32-181.28,181.28s81.32,181.28,181.28,181.28
		s181.28-81.32,181.28-181.28S640.84,264.23,540.88,264.23z"/>
</g>
<g>
	<g>
		<path class="st1" d="M440.04,415.27h-2.65c-1.36,0-2.38-0.34-3.08-1.02c-0.7-0.68-1.05-1.7-1.05-3.05c0-1.51,0.4-2.54,1.22-3.08
			c0.81-0.55,2.67-0.82,5.56-0.82h3.62v-50.91h-3.62c-2.82,0-4.66-0.29-5.51-0.88c-0.85-0.58-1.27-1.65-1.27-3.19
			s0.4-2.61,1.22-3.19c0.81-0.59,2.67-0.88,5.56-0.88h46.68c1.28,0,2.25,0.39,2.91,1.16c0.66,0.77,0.99,1.89,0.99,3.36v13.34
			c0,1.96-0.29,3.31-0.88,4.07c-0.58,0.75-1.59,1.13-3.02,1.13c-1.47,0-2.52-0.39-3.14-1.16c-0.62-0.77-0.93-2.04-0.93-3.82v-1.86
			v-8.08h-30.07v19.05h14.81c0-0.83-0.04-1.71-0.11-2.66c0-0.19,0-0.3,0-0.34c0-2.03,0.27-3.45,0.82-4.24
			c0.55-0.79,1.5-1.19,2.85-1.19c1.36,0,2.3,0.45,2.82,1.33c0.53,0.89,0.79,2.68,0.79,5.4v10.51c0,2.82-0.27,4.63-0.79,5.42
			s-1.47,1.19-2.82,1.19c-1.35,0-2.29-0.47-2.79-1.41c-0.51-0.94-0.76-2.79-0.76-5.54v-1.64h-14.81v25.03h30.07v-9.15
			c0-2.9,0.29-4.77,0.88-5.59c0.58-0.83,1.65-1.24,3.19-1.24c1.43,0,2.44,0.39,3.02,1.16c0.59,0.77,0.88,2.23,0.88,4.38v14.24
			c0,1.36-0.34,2.39-1.02,3.11c-0.68,0.72-1.64,1.07-2.88,1.07H440.04z"/>
		<path class="st1" d="M556.5,405.54V392.1h-14.13c-1.09,0-1.9-0.3-2.43-0.91c-0.53-0.6-0.79-1.53-0.79-2.77
			c0-1.43,0.24-2.41,0.73-2.94c0.49-0.53,1.43-0.79,2.82-0.79h24.41c1.02,0,1.76,0.3,2.23,0.91c0.47,0.61,0.71,1.54,0.71,2.82
			c0,1.4-0.32,2.36-0.96,2.88c-0.64,0.53-1.75,0.79-3.33,0.79h-0.73v17.01c0,1.02-0.12,1.72-0.34,2.12
			c-0.22,0.4-0.68,0.78-1.35,1.16c-2.26,1.28-5.43,2.37-9.49,3.28c-4.07,0.9-8.19,1.35-12.38,1.35c-10.21,0-18.4-3.22-24.55-9.66
			c-6.16-6.44-9.24-14.96-9.24-25.54c0-10.17,3.06-18.62,9.18-25.34c6.12-6.73,13.85-10.09,23.19-10.09c2.56,0,5.13,0.29,7.72,0.88
			c2.58,0.59,5.26,1.46,8.05,2.63c0.42-0.98,0.95-1.69,1.61-2.12c0.66-0.43,1.5-0.65,2.52-0.65c1.77,0,2.95,0.53,3.53,1.58
			c0.58,1.06,0.88,3.49,0.88,7.29v7.69c0,1.84-0.32,3.14-0.96,3.87c-0.64,0.73-1.75,1.1-3.33,1.1c-1.89,0-3.31-1.22-4.29-3.67
			c-0.26-0.68-0.49-1.21-0.68-1.58c-1.35-2.94-3.35-5.23-5.99-6.87c-2.64-1.64-5.65-2.46-9.04-2.46c-6.82,0-12.2,2.47-16.16,7.4
			c-3.96,4.94-5.93,11.72-5.93,20.34c0,8.21,2.25,14.81,6.75,19.81s10.39,7.49,17.66,7.49c2.15,0,4.36-0.29,6.64-0.85
			C551.3,407.69,553.79,406.79,556.5,405.54z"/>
		<path class="st1" d="M630.02,407.3c2.9,0,4.75,0.27,5.56,0.82c0.81,0.55,1.22,1.57,1.22,3.08c0,1.54-0.4,2.61-1.19,3.19
			c-0.79,0.58-2.66,0.88-5.59,0.88h-36.96c-1.36,0-2.38-0.34-3.08-1.02c-0.7-0.68-1.05-1.7-1.05-3.05c0-1.51,0.4-2.54,1.22-3.08
			c0.81-0.55,2.67-0.82,5.56-0.82h12.66v-50.91h-12.66c-2.82,0-4.66-0.29-5.51-0.88c-0.85-0.58-1.27-1.65-1.27-3.19
			s0.4-2.61,1.22-3.19c0.81-0.59,2.67-0.88,5.56-0.88h36.96c1.36,0,2.38,0.34,3.08,1.02c0.7,0.68,1.05,1.69,1.05,3.05
			c0,1.54-0.43,2.61-1.27,3.19c-0.85,0.58-2.68,0.88-5.51,0.88h-12.77v50.91H630.02z"/>
	</g>
	<g>
		<path class="st1" d="M463.55,532.55h-25.32c-1.32,0-2.31-0.34-2.97-1.02c-0.66-0.68-0.99-1.7-0.99-3.05
			c0-1.51,0.39-2.54,1.16-3.08c0.77-0.55,2.74-0.82,5.91-0.82h1.98v-50.91h-1.86c-2.9,0-4.77-0.29-5.59-0.88
			c-0.83-0.58-1.24-1.65-1.24-3.19c0-1.32,0.34-2.33,1.02-3.03c0.68-0.69,1.66-1.04,2.94-1.04h26.39c7.99,0,14.07,1.55,18.25,4.66
			c4.18,3.11,6.27,7.62,6.27,13.53c0,2.98-0.64,5.58-1.92,7.8c-1.28,2.22-3.18,4.05-5.71,5.48c4.07,1.47,7.09,3.52,9.07,6.16
			c1.98,2.64,2.97,5.99,2.97,10.06c0,2.94-0.64,5.7-1.92,8.28c-1.28,2.58-3.11,4.75-5.48,6.53c-2.19,1.62-4.62,2.78-7.32,3.47
			c-2.69,0.7-6.54,1.05-11.55,1.05H463.55z M452.19,494.46H464c5.35,0,9.32-0.85,11.9-2.55c2.58-1.69,3.87-4.31,3.87-7.85
			c0-3.35-1.16-5.92-3.47-7.71c-2.32-1.79-5.68-2.68-10.09-2.68h-14.01V494.46z M452.19,524.58h12.54c7.08,0,12.07-0.89,14.98-2.68
			c2.9-1.79,4.35-4.75,4.35-8.9c0-4.18-1.38-7.16-4.15-8.93s-7.64-2.66-14.61-2.66h-13.11V524.58z"/>
		<path class="st1" d="M569.11,498.98c0,10.32-2.87,18.79-8.59,25.4c-5.73,6.61-13.05,9.92-21.98,9.92
			c-8.82,0-16.11-3.33-21.87-9.97c-5.76-6.65-8.64-15.1-8.64-25.34c0-10.4,2.84-18.89,8.53-25.46c5.69-6.57,13.02-9.86,21.98-9.86
			c8.93,0,16.26,3.31,21.98,9.92C566.24,480.19,569.11,488.66,569.11,498.98z M538.53,526.27c6.33,0,11.31-2.42,14.95-7.26
			c3.64-4.84,5.46-11.52,5.46-20.03c0-8.51-1.82-15.19-5.46-20.04c-3.63-4.84-8.61-7.26-14.95-7.26c-6.37,0-11.35,2.4-14.95,7.2
			c-3.6,4.8-5.39,11.5-5.39,20.09c0,8.51,1.82,15.19,5.45,20.03C527.28,523.85,532.24,526.27,538.53,526.27z"/>
		<path class="st1" d="M597.47,524.58h6.95c2.07,0,3.55,0.3,4.44,0.91c0.88,0.6,1.33,1.6,1.33,3c0,1.54-0.4,2.61-1.21,3.19
			c-0.81,0.58-2.59,0.88-5.34,0.88h-16.78c-1.35,0-2.37-0.34-3.05-1.02c-0.68-0.68-1.02-1.7-1.02-3.05c0-1.47,0.39-2.49,1.16-3.05
			c0.77-0.57,2.27-0.85,4.49-0.85h1.08v-50.91c-3.92,0-6.48-0.29-7.69-0.88c-1.21-0.58-1.81-1.65-1.81-3.19s0.53-2.61,1.61-3.19
			c1.07-0.59,3.7-0.88,7.88-0.88h5.31c1.81,0,3.06,0.2,3.76,0.59c0.7,0.4,1.5,1.41,2.4,3.03l28.42,49.16v-44.64h-6.21
			c-2.04,0-3.52-0.33-4.44-0.99c-0.92-0.66-1.38-1.69-1.38-3.08c0-1.54,0.4-2.61,1.19-3.19c0.79-0.59,2.45-0.88,4.97-0.88h16.22
			c1.36,0,2.36,0.34,3.03,1.02c0.66,0.68,0.99,1.69,0.99,3.05c0,1.51-0.4,2.56-1.21,3.16c-0.81,0.61-2.29,0.91-4.44,0.91h-0.79
			v56.91c0,1.09-0.24,1.85-0.73,2.26c-0.49,0.42-1.64,0.62-3.45,0.62h-0.68c-2,0-3.52-0.91-4.58-2.71
			c-0.11-0.19-0.21-0.34-0.28-0.45l-30.12-51.88V524.58z"/>
	</g>
</g>
<g>
	<path d="M436.64,242.11c-7-0.73-8.19,8.66-8.19,8.66s-8.74-3.67-11.6,2.76c-3.74,8.41,19.75,11.35,19.75,11.35
		S445.79,243.07,436.64,242.11z"/>
</g>
<g>
	<g>
		<path class="st1" d="M552.31,217.24c-5.69-4.14-11.43,3.41-11.43,3.41s-5.73-7.54-11.43-3.41c-7.45,5.41,11.43,19.7,11.43,19.7
			S559.75,222.65,552.31,217.24z"/>
	</g>
	<g>
		<path class="st1" d="M436.64,242.11c-7-0.73-8.19,8.66-8.19,8.66s-8.74-3.67-11.6,2.76c-3.74,8.41,19.75,11.35,19.75,11.35
			S445.79,243.07,436.64,242.11z"/>
	</g>
	<g>
		<path class="st1" d="M348.9,321.48c-6.43,2.86-2.76,11.6-2.76,11.6s-9.4,1.19-8.66,8.19c0.96,9.15,22.77-0.05,22.77-0.05
			S357.31,317.74,348.9,321.48z"/>
	</g>
	<g>
		<path class="st1" d="M645.12,242.11c7-0.73,8.19,8.66,8.19,8.66s8.74-3.67,11.6,2.76c3.74,8.41-19.75,11.35-19.75,11.35
			S635.97,243.07,645.12,242.11z"/>
	</g>
	<g>
		<path class="st1" d="M732.86,321.48c6.43,2.86,2.76,11.6,2.76,11.6s9.4,1.19,8.66,8.19c-0.96,9.15-22.77-0.05-22.77-0.05
			S724.45,317.74,732.86,321.48z"/>
	</g>
</g>
</svg>
